<?xml version="1.0" encoding="utf-8"?>
<!-- Generator: Adobe Illustrator 22.1.0, SVG Export Plug-In . SVG Version: 6.00 Build 0)  -->
<svg version="1.1" id="Layer_1" xmlns="http://www.w3.org/2000/svg" xmlns:xlink="http://www.w3.org/1999/xlink" x="0px" y="0px"
	 viewBox="0 0 344 311" style="enable-background:new 0 0 344 311;" xml:space="preserve">
<style type="text/css">
	.st0{opacity:0.96;fill:#C5DCEE;}
	.st1{fill:none;stroke:#125184;stroke-width:2.3969;stroke-miterlimit:10;}
	.st2{fill:none;stroke:#93BEDE;stroke-width:2.9961;stroke-miterlimit:10;}
	.st3{fill:none;stroke:#1D6EA3;stroke-width:2.3969;stroke-miterlimit:10;}
	.st4{fill:none;stroke:#000013;stroke-width:1.7977;stroke-miterlimit:10;}
	.st5{fill:none;stroke:#93BEDE;stroke-width:1.7977;stroke-miterlimit:10;}
	.st6{fill:none;stroke:#1D6EA3;stroke-width:1.1985;stroke-miterlimit:10;}
	.st7{fill:none;stroke:#000013;stroke-width:1.1985;stroke-miterlimit:10;}
	.st8{fill:none;stroke:#1D6EA3;stroke-width:1.7977;stroke-miterlimit:10;}
</style>
<g>
	<g>
		<image style="overflow:visible;" width="416" height="383" xlink:href="EA9D4FC5.png"  transform="matrix(1 0 0 1 -36 -36)">
		</image>
	</g>
	<rect class="st0" width="344" height="311"/>
	<g>
		<path class="st1" d="M70,163.4H50.1c-2.6,0-4.7-2.1-4.7-4.7v-27.9c0-2.6,2.1-4.7,4.7-4.7H70c2.6,0,4.7,2.1,4.7,4.7v27.9
			C74.7,161.3,72.6,163.4,70,163.4z"/>
		<path class="st2" d="M106.4,166.8H84.7c-2.6,0-4.7-2.1-4.7-4.7V140c0-2.6,2.1-4.7,4.7-4.7h21.7c2.6,0,4.7,2.1,4.7,4.7v22.1
			C111.1,164.7,109,166.8,106.4,166.8z"/>
		<path class="st3" d="M81.3,183.9h-15c-2.6,0-4.7-2.1-4.7-4.7v-28.8c0-2.6,2.1-4.7,4.7-4.7h15c2.6,0,4.7,2.1,4.7,4.7v28.8
			C86.1,181.8,83.9,183.9,81.3,183.9z"/>
		<path class="st4" d="M98.5,183h-4.7c-1.7,0-3.1-1.4-3.1-3.1v-56.7c0-1.7,1.4-3.1,3.1-3.1h4.7c1.7,0,3.1,1.4,3.1,3.1v56.7
			C101.6,181.6,100.2,183,98.5,183z"/>
	</g>
	<g>
		<path class="st5" d="M241.5,76.3h-41.3c-2.6,0-4.7-2.1-4.7-4.7V36.7c0-2.6,2.1-4.7,4.7-4.7h41.3c2.6,0,4.7,2.1,4.7,4.7v34.9
			C246.2,74.2,244.1,76.3,241.5,76.3z"/>
		<path class="st6" d="M225.6,71.1h-10.4c-2.6,0-4.7-2.1-4.7-4.7V41c0-2.6,2.1-4.7,4.7-4.7h10.4c2.6,0,4.7,2.1,4.7,4.7v25.4
			C230.3,69,228.2,71.1,225.6,71.1z"/>
		<path class="st4" d="M232.7,63.5h-24.9c-1.7,0-3.1-1.4-3.1-3.1V47.1c0-1.7,1.4-3.1,3.1-3.1h24.9c1.7,0,3.1,1.4,3.1,3.1v13.3
			C235.9,62.1,234.4,63.5,232.7,63.5z"/>
		<path class="st7" d="M260.8,102.6h-24.9c-1.7,0-3.1-1.4-3.1-3.1V69.7c0-1.7,1.4-3.1,3.1-3.1h24.9c1.7,0,3.1,1.4,3.1,3.1v29.8
			C264,101.2,262.6,102.6,260.8,102.6z"/>
	</g>
	<g>
		<path class="st1" d="M253.4,271.1h-45c-2.6,0-4.7-2.1-4.7-4.7v-34c0-2.6,2.1-4.7,4.7-4.7h45c2.6,0,4.7,2.1,4.7,4.7v34
			C258.2,268.9,256.1,271.1,253.4,271.1z"/>
		<path class="st5" d="M261.1,246.9h-15.6c-2.6,0-4.7-2.1-4.7-4.7V214c0-2.6,2.1-4.7,4.7-4.7h15.6c2.6,0,4.7,2.1,4.7,4.7v28.2
			C265.8,244.8,263.7,246.9,261.1,246.9z"/>
		<path class="st8" d="M245.5,263.1h-31.8c-2.6,0-4.7-2.1-4.7-4.7v-18.7c0-2.6,2.1-4.7,4.7-4.7h31.8c2.6,0,4.7,2.1,4.7,4.7v18.7
			C250.2,261,248.1,263.1,245.5,263.1z"/>
		<path class="st4" d="M217.1,279h-24.9c-1.7,0-3.1-1.4-3.1-3.1v-29.8c0-1.7,1.4-3.1,3.1-3.1h24.9c1.7,0,3.1,1.4,3.1,3.1v29.8
			C220.3,277.6,218.9,279,217.1,279z"/>
	</g>
</g>
</svg>
