<svg id="Layer_1" data-name="Layer 1" xmlns="http://www.w3.org/2000/svg" width="485.5" height="64.6" viewBox="0 0 485.5 64.6">
  <defs>
    <style>
      .cls-1 {
        fill: #250dff;
      }

      .cls-2 {
        fill: #b2b2b2;
      }

      .cls-3 {
        fill: #ed0000;
      }
    </style>
  </defs>
  <title>cp</title>
  <g>
    <path class="cls-1" d="M362.05,252.67v-3.18H347v3.18h2.6V266h3.21v-3a5,5,0,0,1,.42-1.95,5.18,5.18,0,0,1,1.09-1.63,5.51,5.51,0,0,1,1.61-1.11,4.83,4.83,0,0,1,2-.41H358l0-3.18h-.12a7.83,7.83,0,0,0-2.87.53,9.28,9.28,0,0,0-2.22,1.25l0-3.77Z" transform="translate(-204.68 -225.67)"/>
    <path class="cls-2" d="M425.63,255.45a8.92,8.92,0,0,0-2.3-3.94,8.72,8.72,0,0,0-1.81-1.39,9.6,9.6,0,0,0-2.13-.9,9,9,0,0,0-4.73,0,9.8,9.8,0,0,0-2.13.9,8.77,8.77,0,0,0-3.2,3.2,8.76,8.76,0,0,0-1.23,4.5,8.79,8.79,0,0,0,.32,2.36,9.18,9.18,0,0,0,.91,2.13,8.72,8.72,0,0,0,1.39,1.81,9.28,9.28,0,0,0,1.81,1.39,9.8,9.8,0,0,0,2.13.9,8.9,8.9,0,0,0,4.73,0,9.6,9.6,0,0,0,2.13-.9,8.72,8.72,0,0,0,1.81-1.39,8.92,8.92,0,0,0,2.3-3.94,8.9,8.9,0,0,0,0-4.73Zm-2.87,2.36a5.63,5.63,0,0,1-.43,2.19,5.8,5.8,0,0,1-1.24,1.88,6,6,0,0,1-1.87,1.24,5.63,5.63,0,0,1-2.19.43,5.4,5.4,0,0,1-2.23-.46,5.65,5.65,0,0,1-1.82-1.24,5.78,5.78,0,0,1-1.23-1.83,5.51,5.51,0,0,1,0-4.41,5.89,5.89,0,0,1,1.23-1.83,6.29,6.29,0,0,1,1.83-1.24,5.55,5.55,0,0,1,2.22-.46,5.45,5.45,0,0,1,2.2.46,6.16,6.16,0,0,1,1.83,1.24,5.92,5.92,0,0,1,1.24,1.83A5.29,5.29,0,0,1,422.76,257.81Z" transform="translate(-204.68 -225.67)"/>
    <path class="cls-3" d="M447.12,249.5a8.52,8.52,0,0,0-2.15.3,9,9,0,0,0-2,.79,8.43,8.43,0,0,0-1.67,1.22,8.22,8.22,0,0,0-1.3,1.59,7.55,7.55,0,0,0-1.16,4V266h3.2V258a3,3,0,0,1,.47-.09,4.4,4.4,0,0,1,.62,0,4.79,4.79,0,0,1,1.95.4,5.14,5.14,0,0,1,1.62,1.09,5.42,5.42,0,0,1,1.11,1.62,4.91,4.91,0,0,1,.41,2v3h3.24V252.66h2.59V249.5Zm1.15,3.16v3.86a8.63,8.63,0,0,0-5.16-1.76,5.14,5.14,0,0,1,.65-.74,5.5,5.5,0,0,1,1-.73,5,5,0,0,1,2.47-.63Z" transform="translate(-204.68 -225.67)"/>
    <g>
      <path d="M212.1,228.17l.13-.19h-2.57l.1.19a2.14,2.14,0,0,1,.3.89,7.25,7.25,0,0,0-3.24,2.79v-2.37a2.35,2.35,0,0,1,.31-1.31l.12-.19h-2.57l.1.19a2.77,2.77,0,0,1,.27,1.31v9a2.84,2.84,0,0,1-.27,1.32l-.1.18h2.57l-.12-.19a2.35,2.35,0,0,1-.31-1.31v-2.2a7.19,7.19,0,0,1,2.47-4.65,3.28,3.28,0,0,1,.74-.52v7.37a2.68,2.68,0,0,1-.29,1.32l-.1.18h2.57l-.12-.19a2.41,2.41,0,0,1-.29-1.31v-9A2.44,2.44,0,0,1,212.1,228.17Z" transform="translate(-204.68 -225.67)"/>
      <path d="M221,228.17l.12-.19h-2.6l.13.2a2,2,0,0,1,.3,1.3v.88a1.68,1.68,0,0,0-.74-.15,2.53,2.53,0,0,0-.74.18,4.08,4.08,0,0,1-1.15.25,1.09,1.09,0,0,1-.63-.17c0-.1,0-.21,0-.32a3.69,3.69,0,0,1,.31-2l.12-.19h-2.6l.13.2a2.16,2.16,0,0,1,.28,1.3v9a2.05,2.05,0,0,1-.28,1.3l-.13.2H216l-.1-.18a2.44,2.44,0,0,1-.29-1.32v-6.27a2.4,2.4,0,0,0,.8.13,2.81,2.81,0,0,0,1-.23,2.43,2.43,0,0,1,.73-.18,1,1,0,0,1,.74.37v6.18a2,2,0,0,1-.3,1.3l-.13.2H221l-.1-.18a2.44,2.44,0,0,1-.29-1.32v-9A2.49,2.49,0,0,1,221,228.17Z" transform="translate(-204.68 -225.67)"/>
      <path d="M230.93,228.62h-2.71a2.82,2.82,0,0,1,.22-.76l.1-.18H226l.09.18a2.42,2.42,0,0,1,.23.76h-2.71c-.87,0-1.8.28-1.8,1.07a3.51,3.51,0,0,0,.54,1.87l3.85,6.61v-3.39l-1.68-2.9-.15-.23a2.64,2.64,0,0,1-.51-1.16c0-.13.06-.26.47-.26h2v8.22a2.41,2.41,0,0,1-.27,1.31l-.1.19h2.53l-.1-.18a2.53,2.53,0,0,1-.29-1.32v-8.22h2.06c.41,0,.46.13.46.26a2.57,2.57,0,0,1-.51,1.16c0,.08-.1.16-.14.24l-1.68,2.89v3.39l3.85-6.61a3.6,3.6,0,0,0,.54-1.87C232.73,228.9,231.8,228.62,230.93,228.62Z" transform="translate(-204.68 -225.67)"/>
      <path d="M237.21,227.74c-2.44,0-3.9,1.91-3.9,5.11a12,12,0,0,0,.27,2.5c.36,1.66,1.58,4.81,3.65,4.81,1.82,0,3.06-2.36,3.56-4.37a12,12,0,0,0,.36-2.94C241.15,229.65,239.68,227.74,237.21,227.74Zm2.13,5a10.68,10.68,0,0,1-.2,2.15h0c-.19,1.14-.9,3.49-1.91,3.49s-1.71-2.29-1.93-3.5a11.94,11.94,0,0,1-.19-2.15c0-1.13.44-3.25,2.12-3.25S239.34,231.62,239.34,232.75Z" transform="translate(-204.68 -225.67)"/>
      <path d="M247.79,228h-5.56l.12.2a2.09,2.09,0,0,1,.29,1.3v9a2,2,0,0,1-.29,1.3l-.13.2h2.58l-.1-.18a2.44,2.44,0,0,1-.29-1.32v-8.84h2.42c.14,0,.29,0,.35,0a.16.16,0,0,1,0,.13,1.51,1.51,0,0,1-.33.69l-2.3,3.5v3l4.17-6.23a2.87,2.87,0,0,0,.55-1.57C249.31,228.42,248.75,228,247.79,228Z" transform="translate(-204.68 -225.67)"/>
      <path d="M267.45,238.45v-9a2.37,2.37,0,0,1,.29-1.27l.09-.16-.18,0h-.09a1,1,0,0,0-.34,0h-.07c-2.82,0-5,3.11-5.72,5.21a10.78,10.78,0,0,0-.6,3.53c0,.16,0,.34,0,.53a3.92,3.92,0,0,1-.41,2.52l-.16.18-.14-.19a2.35,2.35,0,0,1-.54-1.31l-.54-6.94,0-.35c0-.55-.08-1.11-.08-1.65a2.33,2.33,0,0,1,.28-1.3l.13-.2h-3l0,.09a1.41,1.41,0,0,1-.41.65l-1.21,1.06-1.12-1.06a1.31,1.31,0,0,1-.36-.65l0-.09H250.3l.13.2a2.31,2.31,0,0,1,.3,1.3c0,.67-.06,1.33-.12,2l-.6,7a2.29,2.29,0,0,1-.5,1.25l-.18.28h2.89l-.12-.19a1.9,1.9,0,0,1-.33-1.09l.67-8.64,2.31,1.95,2.42-2,.65,8.48v.16a2.08,2.08,0,0,1-.32,1.15l-.1.19h5.5l-.09-.18a4,4,0,0,1-.29-1.32v-2.07h3.18v2.07a2.44,2.44,0,0,1-.3,1.31l-.13.19h2.57l-.1-.19A2.45,2.45,0,0,1,267.45,238.45ZM265.7,230v4.67h-2.91A8.24,8.24,0,0,1,265.7,230Z" transform="translate(-204.68 -225.67)"/>
      <path d="M276.3,229.48a2.38,2.38,0,0,1,.29-1.31l.1-.19h-2.58l.14.2a2.08,2.08,0,0,1,.29,1.3v8.71h-3.25v-8.71a2.38,2.38,0,0,1,.29-1.31l.1-.19H269.1l.13.2a2,2,0,0,1,.29,1.3v9a2.09,2.09,0,0,1-.29,1.3l-.13.2h6.16a1.84,1.84,0,0,1,1.63,1.12l.24,0v-2.83h-.83Z" transform="translate(-204.68 -225.67)"/>
      <path d="M278.09,239.77l-.1.18h2.57l-.12-.19a2.36,2.36,0,0,1-.3-1.31v-2.2a7.15,7.15,0,0,1,2.47-4.65,3.2,3.2,0,0,1,.73-.52v7.37a2.68,2.68,0,0,1-.29,1.32l-.1.18h2.57l-.12-.19a2.5,2.5,0,0,1-.29-1.31v-9a2.44,2.44,0,0,1,.3-1.31l.13-.19H283l.1.19a2.14,2.14,0,0,1,.3.89,7.22,7.22,0,0,0-3.23,2.79v-2.37a2.36,2.36,0,0,1,.3-1.31l.12-.19H278l.1.19a2.65,2.65,0,0,1,.28,1.31v9A2.72,2.72,0,0,1,278.09,239.77Z" transform="translate(-204.68 -225.67)"/>
      <path d="M288.86,239.78a1.47,1.47,0,0,1-.1-.56,2.79,2.79,0,0,1,.17-.86l1.39-3.89,1.23,1.63v2.35a2.44,2.44,0,0,1-.29,1.32l-.1.18h2.58l-.14-.2a2.05,2.05,0,0,1-.28-1.3v-9a2.16,2.16,0,0,1,.28-1.3l.13-.2h-5.32c-1,0-1.52.44-1.52,1.22a3,3,0,0,0,.67,1.59l1.46,2-1.86,5.28a5.88,5.88,0,0,1-1,1.7l-.14.2h2.86Zm.43-10a.19.19,0,0,1,0-.13c.05,0,.14,0,.25,0h2v3.52l-2-2.65A1.12,1.12,0,0,1,289.29,229.79Z" transform="translate(-204.68 -225.67)"/>
      <path d="M296.65,239.42a1.15,1.15,0,0,0-1.09-1.19,1,1,0,0,0-1,1,1.07,1.07,0,0,0,.43.83,3,3,0,0,1-.48.75l-.07.09.07.08a.81.81,0,0,0,.59.3C295.91,241.28,296.65,240.12,296.65,239.42Z" transform="translate(-204.68 -225.67)"/>
      <path d="M302.8,239.75l-.13.2h2.57l-.09-.18a2.44,2.44,0,0,1-.29-1.32v-8.76H306a1.94,1.94,0,0,0,2-1.85v-.19l-.17.07a4.06,4.06,0,0,1-1.41.26H300.3v2.18l.19-.1a2.56,2.56,0,0,1,1.31-.42h1.3v8.81A2,2,0,0,1,302.8,239.75Z" transform="translate(-204.68 -225.67)"/>
      <path d="M308.53,239.75l-.13.2h7.18v-2.27l-.19.1a2.81,2.81,0,0,1-1.31.4h-3.5v-5.87h3.59v-1.77h-3.59v-.93h2.86a1.85,1.85,0,0,1,1.29.41l.19.13V228H308.4l.13.2a2.16,2.16,0,0,1,.28,1.3v9A2.05,2.05,0,0,1,308.53,239.75Z" transform="translate(-204.68 -225.67)"/>
      <path d="M321.06,240h3l-.23-.22a3,3,0,0,1-.58-1.73c0-3.26-.8-5.6-2.46-7.17l.42-.41a11.63,11.63,0,0,1,2.77-2.2l-.06-.24h-3.21v.13a1.91,1.91,0,0,1-.5,1.22l-1.51,1.36v-1.21a3.08,3.08,0,0,1,.26-1.32L319,228h-2.45l.08.18a2.55,2.55,0,0,1,.26,1.32v9a3.27,3.27,0,0,1-.26,1.32l-.08.18H319l-.1-.18a2.33,2.33,0,0,1-.26-1.19v-5.81l.83-.74c1.34,1.12,1.95,3.59,1.95,5.59V238a3.5,3.5,0,0,1-.25,1.8Z" transform="translate(-204.68 -225.67)"/>
      <path d="M326.31,232.09a2.18,2.18,0,0,1,2.12-2.46,3.1,3.1,0,0,1,1.94.63l.2.13V228h-.12l-.76,0c-.49,0-1-.05-1.49-.05a3.82,3.82,0,0,0-3.74,4.11c0,4.11,3.63,7.16,7.22,8l.15,0V238h-.12C329.1,237.92,326.31,234.47,326.31,232.09Z" transform="translate(-204.68 -225.67)"/>
      <path d="M335,229.64v8.81a2,2,0,0,1-.3,1.3l-.14.2h2.58l-.1-.18a2.44,2.44,0,0,1-.29-1.32v-8.76h1.12a2,2,0,0,0,2-1.85v-.19l-.17.07a4.06,4.06,0,0,1-1.41.26H332.2v2.18l.19-.1a2.57,2.57,0,0,1,1.32-.42Z" transform="translate(-204.68 -225.67)"/>
      <path d="M349.9,228.17,350,228h-2.58l.13.2a2.16,2.16,0,0,1,.28,1.3v9a2.05,2.05,0,0,1-.28,1.3l-.14.2H350l-.1-.18a2.44,2.44,0,0,1-.29-1.32v-9A2.39,2.39,0,0,1,349.9,228.17Z" transform="translate(-204.68 -225.67)"/>
      <path d="M340.72,229.48v9a2.09,2.09,0,0,1-.29,1.3l-.13.2h5.5c.7,0,1.52-.32,1.52-1.21a2.88,2.88,0,0,0-.55-1.59l-4.1-6.23v3l1.94,3.06.1.14a2.83,2.83,0,0,1,.52,1c0,.17-.39.18-.47.18h-2.27v-8.84a2.38,2.38,0,0,1,.29-1.31l.09-.19H340.3l.13.2A2.09,2.09,0,0,1,340.72,229.48Z" transform="translate(-204.68 -225.67)"/>
      <path d="M351.42,241.28c.78,0,1.51-1.16,1.51-1.86a1.14,1.14,0,0,0-1.08-1.19,1,1,0,0,0-1,1,1.07,1.07,0,0,0,.43.83,3.34,3.34,0,0,1-.48.75l-.08.09.08.08A.81.81,0,0,0,351.42,241.28Z" transform="translate(-204.68 -225.67)"/>
      <path d="M359.37,238.45v-8.84h2.29A2.64,2.64,0,0,1,363,230l.19.11V228h-6l.15.2a2,2,0,0,1,.28,1.3v9a2.09,2.09,0,0,1-.29,1.3l-.13.2h2.69l-.1-.18A2.88,2.88,0,0,1,359.37,238.45Z" transform="translate(-204.68 -225.67)"/>
      <path d="M364,239.75l-.13.2h2.57l-.1-.18a2.53,2.53,0,0,1-.29-1.32v-8.84h2.43c.14,0,.29,0,.34,0a.16.16,0,0,1,0,.13,1.42,1.42,0,0,1-.33.69l-2.29,3.5v3l4.16-6.23a2.8,2.8,0,0,0,.55-1.57c0-.78-.55-1.22-1.51-1.22h-5.57l.13.2a2.16,2.16,0,0,1,.28,1.3v9A2.05,2.05,0,0,1,364,239.75Z" transform="translate(-204.68 -225.67)"/>
      <path d="M370.33,236.69c0,.16,0,.34,0,.53a4,4,0,0,1-.42,2.52l-.18.21h2.65l-.09-.18a4,4,0,0,1-.29-1.32v-2.07h3.18v2.07a2.44,2.44,0,0,1-.3,1.31l-.12.19h2.56l-.1-.19a2.45,2.45,0,0,1-.29-1.31v-9a2.37,2.37,0,0,1,.29-1.27l.09-.16-.18,0h-.08a1.06,1.06,0,0,0-.35,0h-.07c-2.81,0-5,3.11-5.72,5.21A10.78,10.78,0,0,0,370.33,236.69ZM375.2,230v4.67h-2.91A8.24,8.24,0,0,1,375.2,230Z" transform="translate(-204.68 -225.67)"/>
      <path d="M382.5,238.17v-3.39l-1.68-2.9-.14-.23a2.53,2.53,0,0,1-.51-1.16c0-.13.05-.26.46-.26h2.06v8.22a2.33,2.33,0,0,1-.28,1.31l-.1.19h2.53l-.09-.18a2.44,2.44,0,0,1-.29-1.32v-8.22h2.05c.41,0,.47.13.47.26a2.69,2.69,0,0,1-.51,1.16l-.15.24-1.68,2.89v3.39l3.85-6.61a3.51,3.51,0,0,0,.54-1.87c0-.79-.93-1.07-1.8-1.07h-2.71a2.5,2.5,0,0,1,.23-.76l.09-.18H382.3l.1.18a2.71,2.71,0,0,1,.22.76h-2.71c-.87,0-1.8.28-1.8,1.07a3.6,3.6,0,0,0,.54,1.87Z" transform="translate(-204.68 -225.67)"/>
      <path d="M389.9,239.77l-.1.18h2.57l-.13-.19a2.44,2.44,0,0,1-.3-1.31v-2.2a7.19,7.19,0,0,1,2.47-4.65,3.28,3.28,0,0,1,.74-.52v7.37a2.8,2.8,0,0,1-.29,1.32l-.1.18h2.57l-.12-.19a2.41,2.41,0,0,1-.29-1.31v-9a2.44,2.44,0,0,1,.3-1.31l.12-.19h-2.56l.1.19a2.29,2.29,0,0,1,.3.89,7.25,7.25,0,0,0-3.24,2.79v-2.37a2.44,2.44,0,0,1,.3-1.31l.13-.19H389.8l.1.19a2.77,2.77,0,0,1,.27,1.31v9A2.84,2.84,0,0,1,389.9,239.77Z" transform="translate(-204.68 -225.67)"/>
      <path d="M403.15,240h3l-.23-.22a3,3,0,0,1-.59-1.73c0-3.26-.8-5.6-2.45-7.17l.42-.41a11.63,11.63,0,0,1,2.77-2.2L406,228h-3.21v.13a1.92,1.92,0,0,1-.51,1.22l-1.5,1.36v-1.21a2.94,2.94,0,0,1,.26-1.32l.08-.18h-2.46l.09.18a2.65,2.65,0,0,1,.26,1.32v9a3.27,3.27,0,0,1-.26,1.32l-.08.18h2.47l-.1-.18a2.23,2.23,0,0,1-.26-1.19v-5.81l.82-.74c1.35,1.12,1.95,3.59,1.95,5.59,0,.1,0,.21,0,.33a3.5,3.5,0,0,1-.26,1.8Z" transform="translate(-204.68 -225.67)"/>
      <path d="M408.7,239.77a3.8,3.8,0,0,1-.29-1.32v-2.07h3.17v2.07a2.44,2.44,0,0,1-.3,1.31l-.12.19h2.57l-.1-.19a2.36,2.36,0,0,1-.29-1.31v-9a2.47,2.47,0,0,1,.28-1.27l.1-.16-.18,0h-.09a1,1,0,0,0-.34,0H413c-2.82,0-5,3.11-5.72,5.21a10.78,10.78,0,0,0-.6,3.53c0,.16,0,.34,0,.53a4,4,0,0,1-.41,2.52l-.19.21h2.66Zm2.88-9.75v4.67h-2.9A8.27,8.27,0,0,1,411.58,230Z" transform="translate(-204.68 -225.67)"/>
      <path d="M415.15,241.28c.78,0,1.51-1.16,1.51-1.86a1.14,1.14,0,0,0-1.08-1.19,1,1,0,0,0-1,1,1.05,1.05,0,0,0,.44.83,3.36,3.36,0,0,1-.49.75l-.07.09.08.08A.81.81,0,0,0,415.15,241.28Z" transform="translate(-204.68 -225.67)"/>
      <path d="M428,240l.16,0V238H428c-2.61-.07-5.41-3.52-5.41-5.9a2.18,2.18,0,0,1,2.12-2.46,3.15,3.15,0,0,1,1.95.63l.19.13V228h-.12l-.76,0c-.48,0-1-.05-1.48-.05a3.82,3.82,0,0,0-3.75,4.11C420.76,236.11,424.4,239.16,428,240Z" transform="translate(-204.68 -225.67)"/>
      <path d="M430,229.64h1.3v8.81a2,2,0,0,1-.3,1.3l-.13.2h2.57l-.1-.18a2.53,2.53,0,0,1-.29-1.32v-8.76h1.13a2,2,0,0,0,2-1.85v-.19l-.17.07a4.06,4.06,0,0,1-1.41.26h-6.11v2.18l.18-.1A2.59,2.59,0,0,1,430,229.64Z" transform="translate(-204.68 -225.67)"/>
      <path d="M438.79,238.45v-8.84h2.43c.13,0,.28,0,.34,0a.16.16,0,0,1,0,.13,1.42,1.42,0,0,1-.33.69L439,234v3l4.17-6.23a2.87,2.87,0,0,0,.55-1.57c0-.78-.55-1.22-1.52-1.22h-5.56l.13.2a2.16,2.16,0,0,1,.28,1.3v9a2.05,2.05,0,0,1-.28,1.3l-.14.2h2.58l-.1-.18A2.44,2.44,0,0,1,438.79,238.45Z" transform="translate(-204.68 -225.67)"/>
      <path d="M448.12,237.19a2.62,2.62,0,0,1-2,.78,2.07,2.07,0,0,1-.86-.23l-.18-.08V240h.13a6.23,6.23,0,0,0,5.16-2.75,5.82,5.82,0,0,0,.87-3.25v-4.47a2.63,2.63,0,0,1,.27-1.31l.1-.19h-2.58l.14.2a2.1,2.1,0,0,1,.3,1.3v4.31a3.68,3.68,0,0,1-.34,2c-2-.38-3.19-2.72-3.19-4.7a4.56,4.56,0,0,1,1.25-2.85l.19-.21h-3l.09.18a1.29,1.29,0,0,1,.1.57,3.74,3.74,0,0,1-.19,1,3.69,3.69,0,0,0-.21,1.09C444.22,234,445.57,236.18,448.12,237.19Z" transform="translate(-204.68 -225.67)"/>
      <path d="M453.18,229.48v9a3.27,3.27,0,0,1-.26,1.32l-.08.18h2.47l-.1-.19a2.18,2.18,0,0,1-.26-1.18v-5.81l.83-.74c1.34,1.12,2,3.59,2,5.59V238a3.61,3.61,0,0,1-.25,1.8l-.14.2h3l-.23-.22a3,3,0,0,1-.58-1.73c0-3.26-.81-5.6-2.46-7.17l.42-.41a11.63,11.63,0,0,1,2.77-2.2l-.06-.24H457v.13a1.91,1.91,0,0,1-.5,1.22L455,230.69v-1.21a3.08,3.08,0,0,1,.26-1.32l.08-.18h-2.45l.08.18A2.55,2.55,0,0,1,453.18,229.48Z" transform="translate(-204.68 -225.67)"/>
      <path d="M461.8,229.64h1.3v8.81a2,2,0,0,1-.3,1.3l-.13.2h2.57l-.09-.18a2.44,2.44,0,0,1-.29-1.32v-8.76H466a1.94,1.94,0,0,0,2-1.85v-.19l-.17.07a4.06,4.06,0,0,1-1.41.26H460.3v2.18l.19-.1A2.56,2.56,0,0,1,461.8,229.64Z" transform="translate(-204.68 -225.67)"/>
      <path d="M472.12,237.19a2.62,2.62,0,0,1-2,.78,2.07,2.07,0,0,1-.86-.23l-.18-.08V240h.13a6.23,6.23,0,0,0,5.16-2.75,5.82,5.82,0,0,0,.87-3.25v-4.47a2.63,2.63,0,0,1,.27-1.31l.1-.19h-2.58l.14.2a2.1,2.1,0,0,1,.3,1.3v4.31a3.68,3.68,0,0,1-.34,2c-2-.38-3.19-2.72-3.19-4.7a4.56,4.56,0,0,1,1.25-2.85l.19-.21h-3l.09.18a1.29,1.29,0,0,1,.1.57,3.42,3.42,0,0,1-.2,1,4,4,0,0,0-.2,1.09C468.22,234,469.57,236.18,472.12,237.19Z" transform="translate(-204.68 -225.67)"/>
      <path d="M476.9,239.75l-.13.2h2.57l-.1-.18a2.44,2.44,0,0,1-.29-1.32v-8.84h2.43a.5.5,0,0,1,.34,0,.16.16,0,0,1,0,.13,1.42,1.42,0,0,1-.33.69l-2.3,3.5v3l4.17-6.23a2.8,2.8,0,0,0,.55-1.57c0-.78-.55-1.22-1.52-1.22h-5.56l.13.2a2.16,2.16,0,0,1,.28,1.3v9A2.05,2.05,0,0,1,476.9,239.75Z" transform="translate(-204.68 -225.67)"/>
      <path d="M483.23,236.69c0,.16,0,.34,0,.53a4,4,0,0,1-.41,2.52l-.19.21h2.66l-.09-.18a4,4,0,0,1-.29-1.32v-2.07h3.17v2.07a2.36,2.36,0,0,1-.3,1.31l-.12.19h2.57l-.1-.19a2.45,2.45,0,0,1-.29-1.31v-9a2.37,2.37,0,0,1,.29-1.27l.09-.16-.18,0H490a1,1,0,0,0-.34,0h-.07c-2.82,0-5,3.11-5.72,5.21A10.78,10.78,0,0,0,483.23,236.69Zm4.86-6.67v4.67h-2.9A8.27,8.27,0,0,1,488.09,230Z" transform="translate(-204.68 -225.67)"/>
      <path d="M495.22,239.75l-.13.2h2.57l-.1-.18a2.44,2.44,0,0,1-.29-1.32v-8.84h2.43a.5.5,0,0,1,.34,0,.16.16,0,0,1,0,.13,1.42,1.42,0,0,1-.33.69l-2.3,3.5v3l4.17-6.23a2.87,2.87,0,0,0,.55-1.57c0-.78-.55-1.22-1.52-1.22h-5.56l.13.2a2.16,2.16,0,0,1,.28,1.3v9A2.05,2.05,0,0,1,495.22,239.75Z" transform="translate(-204.68 -225.67)"/>
      <path d="M506.65,240.16c1.83,0,3.06-2.36,3.56-4.37a12,12,0,0,0,.36-2.94c0-3.2-1.47-5.11-3.93-5.11s-3.91,1.91-3.91,5.11a12.12,12.12,0,0,0,.28,2.5C503.36,237,504.58,240.16,506.65,240.16Zm-2.11-7.41c0-1.13.44-3.25,2.11-3.25s2.12,2.12,2.12,3.25a10.91,10.91,0,0,1-.21,2.16c-.19,1.14-.9,3.49-1.91,3.49s-1.71-2.29-1.92-3.5A11.94,11.94,0,0,1,504.54,232.75Z" transform="translate(-204.68 -225.67)"/>
      <path d="M513.64,239.77a4.16,4.16,0,0,1-.29-1.32v-2.2c0-2.1,1.21-5,3.18-6.23v8.43a2.44,2.44,0,0,1-.3,1.31l-.13.19h2.57l-.1-.19a2.45,2.45,0,0,1-.29-1.31v-9a2.37,2.37,0,0,1,.29-1.27l.09-.16-.18,0h-.08a1.06,1.06,0,0,0-.35,0H518c-2.81,0-5,3.11-5.72,5.21a10.78,10.78,0,0,0-.6,3.53c0,.16,0,.34,0,.53a3.9,3.9,0,0,1-.41,2.52l-.19.21h2.66Z" transform="translate(-204.68 -225.67)"/>
      <path d="M520.07,239.75l-.14.2h7.18v-2.27l-.18.1a2.82,2.82,0,0,1-1.32.4h-3.49v-5.87h3.58v-1.77h-3.58v-.93H525a1.85,1.85,0,0,1,1.29.41l.2.13V228h-6.52l.12.2a2.09,2.09,0,0,1,.29,1.3v9A2.05,2.05,0,0,1,520.07,239.75Z" transform="translate(-204.68 -225.67)"/>
      <path d="M528.15,239.75l-.14.2h.24c2.77,0,7.36-2.89,7.36-6.18a2.6,2.6,0,0,0-1.57-2.41,1.83,1.83,0,0,0,.86-1.62,1.87,1.87,0,0,0-2.09-1.76H528l.13.2a2.18,2.18,0,0,1,.28,1.3v9A2.05,2.05,0,0,1,528.15,239.75Zm4.36-9.21H530.2v-.95h2.37c.21,0,.39.26.39.47A.52.52,0,0,1,532.51,230.54Zm-2.31,7v-5.29h1.67a1.68,1.68,0,0,1,1.79,1.7C533.66,235.46,531.6,237.16,530.2,237.54Z" transform="translate(-204.68 -225.67)"/>
      <path d="M540.16,240.16c1.82,0,3.05-2.36,3.56-4.37a12.51,12.51,0,0,0,.35-2.94c0-3.2-1.47-5.11-3.93-5.11s-3.9,1.91-3.9,5.11a12.1,12.1,0,0,0,.27,2.5C536.87,237,538.09,240.16,540.16,240.16ZM538,232.75c0-1.13.44-3.25,2.12-3.25s2.11,2.12,2.11,3.25a11.72,11.72,0,0,1-.2,2.16c-.19,1.14-.91,3.49-1.91,3.49s-1.71-2.29-1.93-3.5A11.94,11.94,0,0,1,538,232.75Z" transform="translate(-204.68 -225.67)"/>
      <path d="M545.29,239.76l-.1.19h2.57l-.12-.19a2.35,2.35,0,0,1-.31-1.31v-2.2a7.16,7.16,0,0,1,2.48-4.65,3,3,0,0,1,.73-.52v7.37a2.62,2.62,0,0,1-.29,1.31l-.1.19h2.57l-.12-.19a2.5,2.5,0,0,1-.29-1.31v-9a2.44,2.44,0,0,1,.3-1.31l.13-.19h-2.57l.1.19a2.14,2.14,0,0,1,.3.89,7.25,7.25,0,0,0-3.24,2.79v-2.37a2.35,2.35,0,0,1,.31-1.31l.12-.19h-2.57l.1.19a2.66,2.66,0,0,1,.27,1.31v9A2.66,2.66,0,0,1,545.29,239.76Z" transform="translate(-204.68 -225.67)"/>
      <path d="M548.27,227.37a1.21,1.21,0,0,1,.59.19,1.67,1.67,0,0,0,.77.22,1.85,1.85,0,0,0,1.09-.31l.06,0v-1.77l-.21.18a1.45,1.45,0,0,1-.94.4,1.12,1.12,0,0,1-.5-.16,1.75,1.75,0,0,0-.86-.25,2,2,0,0,0-1.1.34l0,0V228l.21-.22A1.33,1.33,0,0,1,548.27,227.37Z" transform="translate(-204.68 -225.67)"/>
      <path d="M557.69,239.76l-.1.19h2.57l-.12-.19a2.36,2.36,0,0,1-.3-1.31v-2.2a7.15,7.15,0,0,1,2.47-4.65,3,3,0,0,1,.73-.52v7.37a2.62,2.62,0,0,1-.29,1.31l-.1.19h2.57l-.12-.19a2.5,2.5,0,0,1-.29-1.31v-9a2.44,2.44,0,0,1,.3-1.31l.13-.19h-2.57l.1.19a2.14,2.14,0,0,1,.3.89,7.17,7.17,0,0,0-3.23,2.79v-2.37a2.36,2.36,0,0,1,.3-1.31l.12-.19h-2.57l.1.19a2.66,2.66,0,0,1,.27,1.31v9A2.66,2.66,0,0,1,557.69,239.76Z" transform="translate(-204.68 -225.67)"/>
      <path d="M566.78,229.48v9a2.16,2.16,0,0,1-.28,1.3l-.13.2h2.68l-.1-.18a2.88,2.88,0,0,1-.4-1.32v-8.84h2.29a2.64,2.64,0,0,1,1.32.41l.19.11V228h-6l.14.2A2,2,0,0,1,566.78,229.48Z" transform="translate(-204.68 -225.67)"/>
      <path d="M578.62,228h-5.56l.13.2a2.16,2.16,0,0,1,.28,1.3v9a2.05,2.05,0,0,1-.28,1.3l-.14.2h2.58l-.1-.18a2.44,2.44,0,0,1-.29-1.32v-8.84h2.43a.51.51,0,0,1,.34,0,.16.16,0,0,1,0,.13,1.51,1.51,0,0,1-.33.69l-2.3,3.5v3l4.17-6.23a2.87,2.87,0,0,0,.55-1.57C580.14,228.42,579.58,228,578.62,228Z" transform="translate(-204.68 -225.67)"/>
      <path d="M581.26,229.48v9a2.16,2.16,0,0,1-.28,1.3l-.13.2h5.5c.7,0,1.51-.32,1.51-1.21a2.89,2.89,0,0,0-.54-1.59l-4.11-6.23v3l1.94,3.06.11.14a2.87,2.87,0,0,1,.51,1c0,.17-.39.18-.46.18H583v-8.84a2.38,2.38,0,0,1,.29-1.31l.1-.19h-2.58l.14.2A2.14,2.14,0,0,1,581.26,229.48Z" transform="translate(-204.68 -225.67)"/>
      <path d="M588.1,239.75l-.13.2h2.57l-.1-.18a2.53,2.53,0,0,1-.29-1.32v-9a2.48,2.48,0,0,1,.29-1.31l.12-.19H588l.13.2a2.16,2.16,0,0,1,.28,1.3v9A2.05,2.05,0,0,1,588.1,239.75Z" transform="translate(-204.68 -225.67)"/>
      <path d="M595.52,239.75l-.13.2H598l-.09-.18a2.44,2.44,0,0,1-.29-1.32v-8.84h3.25v8.84a2,2,0,0,1-.3,1.3l-.13.2H603l-.09-.18a2.44,2.44,0,0,1-.29-1.32v-9a2.4,2.4,0,0,1,.3-1.31L603,228h-7.61l.13.2a2.27,2.27,0,0,1,.28,1.3v9A2.05,2.05,0,0,1,595.52,239.75Z" transform="translate(-204.68 -225.67)"/>
      <path d="M604.37,239.75l-.13.2h2.57l-.1-.18a2.53,2.53,0,0,1-.29-1.32v-8.84h2.43a.5.5,0,0,1,.34,0,.16.16,0,0,1,0,.13,1.42,1.42,0,0,1-.33.69l-2.29,3.5v3l4.16-6.23a2.8,2.8,0,0,0,.55-1.57c0-.78-.55-1.22-1.52-1.22h-5.56l.13.2a2.16,2.16,0,0,1,.28,1.3v9A2.05,2.05,0,0,1,604.37,239.75Z" transform="translate(-204.68 -225.67)"/>
      <path d="M619.49,228.17l.13-.19h-2.57l.1.19a2.14,2.14,0,0,1,.3.89,7.25,7.25,0,0,0-3.24,2.79v-2.37a2.44,2.44,0,0,1,.3-1.31l.13-.19h-2.57l.1.19a2.77,2.77,0,0,1,.27,1.31v9a2.77,2.77,0,0,1-.27,1.31l-.1.19h2.57l-.13-.19a2.44,2.44,0,0,1-.3-1.31v-2.2a7.19,7.19,0,0,1,2.47-4.65,3.28,3.28,0,0,1,.74-.52v7.37a2.73,2.73,0,0,1-.29,1.31l-.1.19h2.57l-.12-.19a2.41,2.41,0,0,1-.29-1.31v-9A2.44,2.44,0,0,1,619.49,228.17Z" transform="translate(-204.68 -225.67)"/>
      <path d="M628.34,228.17l.12-.19h-2.6l.13.2a2,2,0,0,1,.3,1.3v.88a1.68,1.68,0,0,0-.74-.15,2.53,2.53,0,0,0-.74.18,4.08,4.08,0,0,1-1.15.25,1.09,1.09,0,0,1-.63-.17c0-.1,0-.21,0-.32a3.64,3.64,0,0,1,.31-2l.13-.2h-2.61l.13.2a2.16,2.16,0,0,1,.28,1.3v9a2.05,2.05,0,0,1-.28,1.3l-.13.2h2.57l-.1-.18a2.44,2.44,0,0,1-.29-1.32v-6.27a2.4,2.4,0,0,0,.8.13,2.81,2.81,0,0,0,1-.23,2.43,2.43,0,0,1,.73-.18,1,1,0,0,1,.74.37v6.18a2,2,0,0,1-.3,1.3l-.13.2h2.57l-.1-.18a2.44,2.44,0,0,1-.29-1.32v-9A2.49,2.49,0,0,1,628.34,228.17Z" transform="translate(-204.68 -225.67)"/>
      <path d="M636.33,238.45v-9a2.47,2.47,0,0,1,.28-1.27l.1-.16-.18,0h-.09a1,1,0,0,0-.34,0H636c-2.82,0-5,3.11-5.72,5.21a10.78,10.78,0,0,0-.6,3.53c0,.16,0,.34,0,.53a4,4,0,0,1-.41,2.52l-.19.21h2.66l-.09-.18a3.8,3.8,0,0,1-.29-1.32v-2.07h3.17v2.07a2.44,2.44,0,0,1-.3,1.31l-.12.19h2.57l-.1-.19A2.36,2.36,0,0,1,636.33,238.45ZM634.57,230v4.67h-2.9A8.27,8.27,0,0,1,634.57,230Z" transform="translate(-204.68 -225.67)"/>
      <path d="M644.79,229.44a2.37,2.37,0,0,1,.29-1.27l.09-.16-.18,0h-.09a1,1,0,0,0-.34,0h-.07c-3,0-5,3.38-5.75,5.38a12.64,12.64,0,0,0-.68,3.83l0,1.08h-.77V241l.24,0a1.77,1.77,0,0,1,1.63-1.12h4.64a1.84,1.84,0,0,1,1.63,1.12l.24,0v-2.78h-.85ZM643,230v8.22h-3.2a15.55,15.55,0,0,1,.26-3.4A8.23,8.23,0,0,1,643,230Z" transform="translate(-204.68 -225.67)"/>
      <path d="M653.19,238.45v-9a2.37,2.37,0,0,1,.29-1.27l.09-.16-.18,0h-.08a1.06,1.06,0,0,0-.35,0h-.07c-2.81,0-5,3.11-5.72,5.21a10.78,10.78,0,0,0-.6,3.53c0,.16,0,.34,0,.53a3.9,3.9,0,0,1-.41,2.52L646,240h2.66l-.09-.18a4.16,4.16,0,0,1-.29-1.32v-2.2c0-2.1,1.21-5,3.18-6.23v8.43a2.44,2.44,0,0,1-.3,1.31L651,240h2.57l-.1-.19A2.45,2.45,0,0,1,653.19,238.45Z" transform="translate(-204.68 -225.67)"/>
      <path d="M660.52,238.18H657v-5.87h3.59v-1.77H657v-.93h2.85a1.84,1.84,0,0,1,1.29.41l.2.13V228h-6.52l.13.2a2.16,2.16,0,0,1,.28,1.3v9a2.05,2.05,0,0,1-.28,1.3l-.13.2H662v-2.27l-.18.1A2.82,2.82,0,0,1,660.52,238.18Z" transform="translate(-204.68 -225.67)"/>
      <path d="M673.42,238c0-3.22-.75-5.47-2.35-7.08l.48-.51a9.56,9.56,0,0,1,2.55-2.19L674,228H671v.13a2.17,2.17,0,0,1-.5,1.26l-1.22,1.34v-1.48a1.85,1.85,0,0,1,.27-1.06l.11-.19H667.1l.1.19a2,2,0,0,1,.29,1.09v1.46l-1.24-1.35a2.17,2.17,0,0,1-.5-1.26V228h-3.08l-.06.24a9.56,9.56,0,0,1,2.55,2.19l.48.51c-1.6,1.61-2.35,3.86-2.35,7.08a3.2,3.2,0,0,1-.55,1.74l-.22.21h2.9l-.12-.19a2.38,2.38,0,0,1-.25-1.28c0-2.2.21-4.89,1.83-6.31l.59.61v5.8a2.18,2.18,0,0,1-.26,1.18l-.1.19h2.47l-.1-.19a2,2,0,0,1-.24-1.07v-5.91l.59-.61c1.35,1.19,1.83,3.66,1.83,5.45,0,.09,0,.19,0,.3a3.77,3.77,0,0,1-.26,1.84l-.12.19h2.9l-.22-.21A3.2,3.2,0,0,1,673.42,238Z" transform="translate(-204.68 -225.67)"/>
      <path d="M681.43,238.45v-9a2.37,2.37,0,0,1,.29-1.27l.09-.16-.18,0h-.08a1.08,1.08,0,0,0-.35,0h-.07c-2.81,0-5,3.11-5.72,5.21a10.78,10.78,0,0,0-.6,3.53c0,.16,0,.34,0,.53a4,4,0,0,1-.42,2.52l-.18.21h2.65l-.09-.18a4,4,0,0,1-.29-1.32v-2.07h3.18v2.07a2.44,2.44,0,0,1-.3,1.31l-.13.19h2.57l-.1-.19A2.45,2.45,0,0,1,681.43,238.45ZM679.68,230v4.67h-2.91A8.24,8.24,0,0,1,679.68,230Z" transform="translate(-204.68 -225.67)"/>
      <path d="M690,227.72a4.06,4.06,0,0,1-1.41.26h-6.11v2.18l.19-.1a2.56,2.56,0,0,1,1.31-.42h1.3v8.81a2,2,0,0,1-.3,1.3l-.13.2h2.57l-.09-.18a2.44,2.44,0,0,1-.29-1.32v-8.76h1.12a1.94,1.94,0,0,0,2-1.85v-.19Z" transform="translate(-204.68 -225.67)"/>
      <path d="M361,265.75l-.14.2h2.44l-.09-.18a2.3,2.3,0,0,1-.27-1.24v-2.19l1.14-1.52,1.3,3.63a2.77,2.77,0,0,1,.16.8,1.47,1.47,0,0,1-.1.53l-.07.17H368l-.14-.2a5.6,5.6,0,0,1-.89-1.59l-1.74-5,1.36-1.85a2.84,2.84,0,0,0,.63-1.49c0-.73-.52-1.15-1.43-1.15h-5l.13.19a2.06,2.06,0,0,1,.26,1.22v8.4A1.92,1.92,0,0,1,361,265.75Zm4-9.33a1,1,0,0,1-.24.64l-1.86,2.47v-3.27h1.76c.12,0,.26,0,.31,0A.17.17,0,0,1,365,256.42Z" transform="translate(-204.68 -225.67)"/>
      <path d="M370.83,254.91l.12-.19H368.5l.13.19a2.06,2.06,0,0,1,.26,1.22v8.4a1.92,1.92,0,0,1-.26,1.22l-.14.2h2.44l-.09-.18a2.31,2.31,0,0,1-.28-1.24v-8.4A2.34,2.34,0,0,1,370.83,254.91Z" transform="translate(-204.68 -225.67)"/>
      <path d="M377.41,264.27h-3.26v-5.48h3.36v-1.67h-3.36v-.86h2.66a1.77,1.77,0,0,1,1.21.38l.19.13v-2h-6.13l.13.19a2,2,0,0,1,.27,1.22v8.4a1.86,1.86,0,0,1-.27,1.22l-.13.2h6.75V263.8l-.18.1A2.69,2.69,0,0,1,377.41,264.27Z" transform="translate(-204.68 -225.67)"/>
      <path d="M384.44,265.75l-.13.2h2.44l-.11-.19a2.3,2.3,0,0,1-.25-1.23v-8.4a2.61,2.61,0,0,1,.25-1.23l.1-.18H384.3l.14.2a1.88,1.88,0,0,1,.27,1.21v3l-2.29-3.21a1.06,1.06,0,0,1-.13-1l0-.16h-2.68l.13.19a2.06,2.06,0,0,1,.26,1.22v8.4a1.92,1.92,0,0,1-.26,1.22l-.14.2h2.44l-.09-.18a2.31,2.31,0,0,1-.28-1.24v-6.79l3,4.15v2.64A2.23,2.23,0,0,1,384.44,265.75Z" transform="translate(-204.68 -225.67)"/>
      <path d="M388.15,254.62l-.27,0,.16.22a2.12,2.12,0,0,1,.26,1.25v8.47a2,2,0,0,1-.26,1.22l-.14.2h4c2.36,0,3.2-2,3.2-3.91C395.12,258.67,391.6,254.92,388.15,254.62Zm1.82,2.49a6,6,0,0,1,3.44,4.95c0,.52-.12,2.2-1.75,2.2H390Z" transform="translate(-204.68 -225.67)"/>
      <path d="M399.22,256.14a.27.27,0,0,0,.16-.05,4.05,4.05,0,0,1,.76.48l.16.11,1.08-1.46-.11-.07a3.66,3.66,0,0,0-2.23-.64,2,2,0,0,0-2.19,2.15c0,1.17,1,2.1,2,3s2,1.79,2,2.91a1.63,1.63,0,0,1-1.78,1.81,2.52,2.52,0,0,1-2.15-1.16l-.1-.16-1.35,1.87.36.21a5.4,5.4,0,0,0,2.72,1h.53a3.41,3.41,0,0,0,3.58-3.45c0-2.16-1.63-3.58-2.83-4.62-.65-.57-1.22-1.06-1.22-1.44C398.58,256.39,398.66,256.14,399.22,256.14Z" transform="translate(-204.68 -225.67)"/>
      <path d="M429.29,264.53v-5.74h3.4v-1.67h-3.4v-.86H432a1.8,1.8,0,0,1,1.21.39l.19.11v-2h-6.13l.13.19a2.06,2.06,0,0,1,.26,1.22v8.4a1.92,1.92,0,0,1-.26,1.22l-.13.2h2.55l-.11-.19A2.09,2.09,0,0,1,429.29,264.53Z" transform="translate(-204.68 -225.67)"/>
      <path d="M458.64,265.75l-.13.2H461l-.1-.19a2.28,2.28,0,0,1-.25-1.23v-8.4a2.61,2.61,0,0,1,.25-1.23l.1-.18h-2.44l.13.2a1.88,1.88,0,0,1,.28,1.21v3l-2.29-3.21a1.06,1.06,0,0,1-.13-1l.05-.16h-2.69l.13.19a2,2,0,0,1,.27,1.22v8.4a1.86,1.86,0,0,1-.27,1.22l-.13.2h2.44l-.1-.18a2.3,2.3,0,0,1-.27-1.24v-6.79l3,4.15v2.64A2.14,2.14,0,0,1,458.64,265.75Z" transform="translate(-204.68 -225.67)"/>
      <path d="M465.83,256.27a4.27,4.27,0,0,1,2.12.66l.19.11v-2.32H465.5a3.29,3.29,0,0,0-3.52,3.5c0,3.88,3.62,6.92,7.19,7.9l.26.08-.12-.25a2.74,2.74,0,0,1-.33-1.25v-5.46a2.15,2.15,0,0,1,.25-1.23l.12-.19h-2.44l.13.2a2,2,0,0,1,.28,1.22v4.32c-1.71-.84-3.62-3.19-3.62-5.16A2,2,0,0,1,465.83,256.27Z" transform="translate(-204.68 -225.67)"/>
      <path d="M475.25,256.26a1.76,1.76,0,0,1,1.2.38l.2.13v-2h-6.14l.13.19a2,2,0,0,1,.27,1.22v8.4a1.86,1.86,0,0,1-.27,1.22l-.13.2h6.75V263.8l-.18.1a2.66,2.66,0,0,1-1.23.37h-3.27v-5.48h3.36v-1.67h-3.36v-.86Z" transform="translate(-204.68 -225.67)"/>
      <path d="M484.51,265.14a5.4,5.4,0,0,0,2.72,1h.53a3.42,3.42,0,0,0,3.59-3.45c0-2.16-1.64-3.58-2.83-4.62-.66-.57-1.22-1.06-1.22-1.44,0-.21.07-.46.64-.46a.3.3,0,0,0,.16-.05,4.69,4.69,0,0,1,.75.48l.17.11,1.08-1.46-.11-.07a3.68,3.68,0,0,0-2.23-.64,2,2,0,0,0-2.2,2.15c0,1.17,1,2.1,2,3s2,1.79,2,2.91a1.63,1.63,0,0,1-1.78,1.81,2.53,2.53,0,0,1-2.16-1.16l-.1-.16-1.34,1.86V263.8l-.18.1a2.66,2.66,0,0,1-1.23.37h-2.59v-8.14a2.66,2.66,0,0,1,.37-1.23l.1-.18h-2.54l.13.19a2.06,2.06,0,0,1,.26,1.22v8.4a1.92,1.92,0,0,1-.26,1.22l-.13.2h6.07v-1Z" transform="translate(-204.68 -225.67)"/>
      <path d="M492.6,264.21a.89.89,0,0,0-.87.88.88.88,0,0,0,.87.86.86.86,0,0,0,.88-.86A.87.87,0,0,0,492.6,264.21Z" transform="translate(-204.68 -225.67)"/>
      <path d="M496.68,266.11h.53a3.42,3.42,0,0,0,3.59-3.45c0-2.16-1.64-3.58-2.83-4.62-.66-.57-1.22-1.06-1.22-1.44,0-.21.07-.46.64-.46a.3.3,0,0,0,.16-.05,4.69,4.69,0,0,1,.75.48l.17.11,1.08-1.46-.11-.07a3.68,3.68,0,0,0-2.23-.64,2,2,0,0,0-2.2,2.15c0,1.17,1,2.1,2,3s2,1.79,2,2.91a1.63,1.63,0,0,1-1.78,1.81,2.53,2.53,0,0,1-2.16-1.16l-.1-.16-1.34,1.87.35.21A5.4,5.4,0,0,0,496.68,266.11Z" transform="translate(-204.68 -225.67)"/>
      <path d="M503.76,260.34v2.87l3.92-5.87a2.64,2.64,0,0,0,.51-1.47c0-.73-.52-1.15-1.43-1.15h-5.23l.13.19a2,2,0,0,1,.27,1.22v8.4a1.86,1.86,0,0,1-.27,1.22l-.13.2H504l-.1-.18a2.3,2.3,0,0,1-.27-1.24v-8.27h2.27c.12,0,.26,0,.31.05a.12.12,0,0,1,0,.11,1.31,1.31,0,0,1-.31.64Z" transform="translate(-204.68 -225.67)"/>
      <path d="M510.73,257.71v6.82a1.9,1.9,0,0,1-.28,1.22l-.13.2h2.44l-.1-.19a2.3,2.3,0,0,1-.25-1.23v-6.89c.05-.07.13-.16.22-.26a10.5,10.5,0,0,1,2.5-2.42l0-.24h-2.81v.12a2.1,2.1,0,0,1-.66,1.2l-.09.1a1.06,1.06,0,0,0-.15-.15,1.41,1.41,0,0,1-.53-1.15v-.12H508L508,255a17.88,17.88,0,0,1,2.59,2.57Z" transform="translate(-204.68 -225.67)"/>
      <path d="M515.58,265.75l-.13.2h.24c2.6,0,6.9-2.71,6.9-5.8a2.45,2.45,0,0,0-1.46-2.26,1.72,1.72,0,0,0,.8-1.51,1.77,1.77,0,0,0-2-1.66h-4.51l.13.19a2,2,0,0,1,.27,1.22v8.4A1.86,1.86,0,0,1,515.58,265.75Zm4.1-8.63h-2.16v-.88h2.22c.19,0,.35.24.35.43A.49.49,0,0,1,519.68,257.12Zm-2.16,6.55v-4.94h1.56a1.58,1.58,0,0,1,1.67,1.59C520.75,261.72,518.83,263.31,517.52,263.67Z" transform="translate(-204.68 -225.67)"/>
      <path d="M523.43,254.91a2.09,2.09,0,0,1,.26,1.22v8.4a1.92,1.92,0,0,1-.26,1.22l-.14.2h.24c2.6,0,6.91-2.71,6.91-5.8a2.44,2.44,0,0,0-1.47-2.26,1.71,1.71,0,0,0,.81-1.51,1.77,1.77,0,0,0-2-1.66H523.3Zm4.09,2.21h-2.15v-.88h2.21c.19,0,.36.24.36.43A.49.49,0,0,1,527.52,257.12Zm-2.15,6.55v-4.94h1.55a1.59,1.59,0,0,1,1.68,1.59C528.6,261.72,526.67,263.31,525.37,263.67Z" transform="translate(-204.68 -225.67)"/>
      <path d="M530.79,265.09a.88.88,0,0,0,.87.86.86.86,0,0,0,.88-.86.87.87,0,0,0-.88-.88A.89.89,0,0,0,530.79,265.09Z" transform="translate(-204.68 -225.67)"/>
      <path d="M537.83,266h2.72l-.15-.2a5.45,5.45,0,0,1-.88-1.59l-1.75-5,1.37-1.85a2.84,2.84,0,0,0,.63-1.49c0-.73-.52-1.15-1.43-1.15h-5l.13.19a2,2,0,0,1,.27,1.22v8.4a1.86,1.86,0,0,1-.27,1.22l-.13.2h2.44l-.1-.18a2.3,2.3,0,0,1-.27-1.24v-2.19l1.14-1.52,1.3,3.63a2.47,2.47,0,0,1,.16.8,1.44,1.44,0,0,1-.09.53Zm-2.43-9.69h1.77c.12,0,.26,0,.3,0s0,.06,0,.12a1,1,0,0,1-.25.64l-1.86,2.47Z" transform="translate(-204.68 -225.67)"/>
      <path d="M543.8,254.93l.2-.21h-2.79l0,.16a1.12,1.12,0,0,1,.06.38,3.44,3.44,0,0,1-.21,1.05,4.26,4.26,0,0,0-.21,1.16c0,3.49,3.53,7.83,7,8.61l.28.06-.14-.24a2.34,2.34,0,0,1-.28-1.28v-8.49a2.61,2.61,0,0,1,.25-1.23l.1-.18h-2.44l.13.2a1.88,1.88,0,0,1,.28,1.21v7.08a7.8,7.8,0,0,1-3.44-5.84A3.46,3.46,0,0,1,543.8,254.93Z" transform="translate(-204.68 -225.67)"/>
      <path d="M285.44,277.37l.12-.19h-7.62l.14.2a2.35,2.35,0,0,1,.28,1.3v9a2.05,2.05,0,0,1-.28,1.3l-.14.2h2.58l-.1-.19a2.38,2.38,0,0,1-.29-1.31v-8.84h3.25v8.84a2.08,2.08,0,0,1-.29,1.3l-.14.2h2.58l-.1-.19a2.38,2.38,0,0,1-.29-1.31v-9A2.4,2.4,0,0,1,285.44,277.37Z" transform="translate(-204.68 -225.67)"/>
      <path d="M290.55,276.94c-2.45,0-3.9,1.91-3.9,5.1a12,12,0,0,0,.27,2.51c.36,1.66,1.58,4.81,3.64,4.81,1.83,0,3.06-2.36,3.57-4.37a12.54,12.54,0,0,0,.35-2.95C294.48,278.85,293,276.94,290.55,276.94Zm2.13,5a10.67,10.67,0,0,1-.21,2.15h0c-.18,1.14-.9,3.49-1.91,3.49s-1.71-2.29-1.92-3.5a11.94,11.94,0,0,1-.19-2.15c0-1.13.44-3.25,2.11-3.25S292.68,280.82,292.68,282Z" transform="translate(-204.68 -225.67)"/>
      <path d="M302.19,287.65v-9a2.46,2.46,0,0,1,.29-1.27l.09-.16-.18,0h-.08a1.06,1.06,0,0,0-.35,0h-.07c-2.81,0-5,3.11-5.72,5.21a11,11,0,0,0-.6,3.53c0,.15,0,.34,0,.53a4,4,0,0,1-.42,2.52l-.19.21h2.66l-.08-.18a3.91,3.91,0,0,1-.3-1.32v-2.19c0-2.11,1.21-5,3.18-6.24v8.43a2.44,2.44,0,0,1-.3,1.31l-.12.19h2.56l-.1-.19A2.45,2.45,0,0,1,302.19,287.65Z" transform="translate(-204.68 -225.67)"/>
      <path d="M311.34,277.37l.12-.19h-2.6l.13.2a2,2,0,0,1,.3,1.3v.88a1.68,1.68,0,0,0-.74-.15,2.53,2.53,0,0,0-.74.18,3.76,3.76,0,0,1-1.15.25,1.09,1.09,0,0,1-.63-.17v-.32a3.6,3.6,0,0,1,.3-2l.13-.19h-2.61l.13.2a2.16,2.16,0,0,1,.28,1.3v9A2.05,2.05,0,0,1,304,289l-.13.2h2.57l-.1-.19a2.47,2.47,0,0,1-.29-1.31v-6.27a2.45,2.45,0,0,0,.81.13,2.81,2.81,0,0,0,1-.23,2.43,2.43,0,0,1,.73-.18,1,1,0,0,1,.74.37v6.18a2,2,0,0,1-.3,1.3l-.13.2h2.57l-.1-.19a2.47,2.47,0,0,1-.29-1.31v-9A2.49,2.49,0,0,1,311.34,277.37Z" transform="translate(-204.68 -225.67)"/>
      <path d="M316.45,276.94c-2.44,0-3.9,1.91-3.9,5.1a12,12,0,0,0,.27,2.51c.36,1.66,1.58,4.81,3.65,4.81,1.82,0,3.06-2.36,3.56-4.37a12,12,0,0,0,.36-2.95C320.39,278.85,318.92,276.94,316.45,276.94Zm2.13,5a10.68,10.68,0,0,1-.2,2.15h0c-.19,1.14-.9,3.49-1.91,3.49s-1.71-2.29-1.93-3.5a11.94,11.94,0,0,1-.19-2.15c0-1.13.44-3.25,2.12-3.25S318.58,280.82,318.58,282Z" transform="translate(-204.68 -225.67)"/>
      <path d="M327.14,287.38h-3.49v-5.87h3.58v-1.77h-3.58v-.93h2.85a1.85,1.85,0,0,1,1.29.41l.2.13v-2.17h-6.53l.13.2a2.09,2.09,0,0,1,.29,1.3v9a2,2,0,0,1-.29,1.3l-.13.2h7.18v-2.27l-.18.1A2.88,2.88,0,0,1,327.14,287.38Z" transform="translate(-204.68 -225.67)"/>
      <path d="M340.59,277.37l.12-.19h-2.56l.1.18a2.4,2.4,0,0,1,.3.9,7.25,7.25,0,0,0-3.24,2.79v-2.37a2.44,2.44,0,0,1,.3-1.31l.12-.19h-2.56l.1.19a2.77,2.77,0,0,1,.27,1.31v9a2.77,2.77,0,0,1-.27,1.31l-.1.19h2.56l-.12-.19a2.44,2.44,0,0,1-.3-1.31v-2.19a7.15,7.15,0,0,1,2.47-4.66,3.28,3.28,0,0,1,.74-.52v7.37a2.73,2.73,0,0,1-.29,1.31l-.1.19h2.57l-.13-.19a2.49,2.49,0,0,1-.28-1.31v-9A2.44,2.44,0,0,1,340.59,277.37Z" transform="translate(-204.68 -225.67)"/>
      <path d="M348.58,287.65v-9a2.47,2.47,0,0,1,.28-1.27l.1-.16-.18,0h-.09a1,1,0,0,0-.34,0h-.07c-2.82,0-5,3.11-5.72,5.21a10.78,10.78,0,0,0-.6,3.53c0,.15,0,.34,0,.53a4,4,0,0,1-.41,2.52l-.19.21H344l-.08-.18a3.9,3.9,0,0,1-.29-1.32v-2.19c0-2.11,1.21-5,3.17-6.24v8.43a2.44,2.44,0,0,1-.3,1.31l-.12.19H349l-.1-.19A2.36,2.36,0,0,1,348.58,287.65Z" transform="translate(-204.68 -225.67)"/>
      <path d="M357.69,277.37l.13-.19h-2.57l.1.18a2.23,2.23,0,0,1,.3.9,7.17,7.17,0,0,0-3.23,2.79v-2.37a2.36,2.36,0,0,1,.3-1.31l.12-.19h-2.57l.1.19a2.66,2.66,0,0,1,.27,1.31v9a2.66,2.66,0,0,1-.27,1.31l-.1.19h2.57l-.12-.19a2.36,2.36,0,0,1-.3-1.31v-2.19a7.15,7.15,0,0,1,2.47-4.66,3,3,0,0,1,.73-.52v7.37a2.62,2.62,0,0,1-.29,1.31l-.1.19h2.57l-.12-.19a2.5,2.5,0,0,1-.29-1.31v-9A2.44,2.44,0,0,1,357.69,277.37Z" transform="translate(-204.68 -225.67)"/>
      <path d="M370,277.37l.12-.19h-2.59l.13.2a2.16,2.16,0,0,1,.28,1.3v6.1c-2-.29-3.64-2.69-3.64-4.54a4,4,0,0,1,1.25-2.84l.21-.22h-3l.06.17a1.26,1.26,0,0,1,.07.41,4.45,4.45,0,0,1-.19,1.09,4.49,4.49,0,0,0-.21,1.15,6.78,6.78,0,0,0,5.41,6.63c0,.11,0,.23,0,.35a3.42,3.42,0,0,1-.29,2l-.13.2h2.57L370,289a2.45,2.45,0,0,1-.29-1.31v-9A2.48,2.48,0,0,1,370,277.37Z" transform="translate(-204.68 -225.67)"/>
      <path d="M378,287.65v-9a2.37,2.37,0,0,1,.29-1.27l.09-.16-.18,0h-.09a1,1,0,0,0-.34,0h-.07c-2.82,0-5,3.11-5.72,5.21a10.78,10.78,0,0,0-.6,3.53c0,.16,0,.34,0,.53a3.92,3.92,0,0,1-.41,2.52l-.19.21h2.66l-.09-.18a4,4,0,0,1-.29-1.32v-2.07h3.18v2.07A2.44,2.44,0,0,1,376,289l-.13.19h2.57l-.1-.19A2.45,2.45,0,0,1,378,287.65Zm-1.75-8.43v4.67h-2.91A8.24,8.24,0,0,1,376.25,279.22Z" transform="translate(-204.68 -225.67)"/>
      <path d="M381.36,281.29a2.19,2.19,0,0,1,2.11-2.47,3.16,3.16,0,0,1,1.95.64l.2.13v-2.4h-.12l-.77,0c-.48,0-1-.05-1.48-.05a3.82,3.82,0,0,0-3.74,4.11c0,4.11,3.63,7.16,7.22,8l.15,0v-2.09h-.12C384.15,287.12,381.36,283.67,381.36,281.29Z" transform="translate(-204.68 -225.67)"/>
      <path d="M393.36,277.18h-6.11v2.19l.19-.11a2.56,2.56,0,0,1,1.31-.42h1.3v8.81a2,2,0,0,1-.3,1.3l-.13.2h2.58l-.1-.19a2.38,2.38,0,0,1-.29-1.31v-8.76h1.12a1.94,1.94,0,0,0,2-1.85v-.19l-.17.07A4,4,0,0,1,393.36,277.18Z" transform="translate(-204.68 -225.67)"/>
      <path d="M402.81,277.37l.13-.19h-2.57l.1.18a2.23,2.23,0,0,1,.3.9,7.25,7.25,0,0,0-3.24,2.79v-2.37a2.35,2.35,0,0,1,.31-1.31l.12-.19h-2.57l.1.19a2.77,2.77,0,0,1,.27,1.31v9a2.77,2.77,0,0,1-.27,1.31l-.1.19H398l-.12-.19a2.35,2.35,0,0,1-.31-1.31v-2.19A7.19,7.19,0,0,1,400,280.8a3.28,3.28,0,0,1,.74-.52v7.37a2.62,2.62,0,0,1-.29,1.31l-.1.19h2.57l-.12-.19a2.41,2.41,0,0,1-.29-1.31v-9A2.44,2.44,0,0,1,402.81,277.37Z" transform="translate(-204.68 -225.67)"/>
      <path d="M411.53,277.37l.12-.19h-2.58l.12.2a2.09,2.09,0,0,1,.29,1.3v6.1c-2-.29-3.64-2.69-3.64-4.54a4,4,0,0,1,1.24-2.84l.22-.22h-3l.05.17a1.06,1.06,0,0,1,.08.41,4,4,0,0,1-.2,1.09,4.47,4.47,0,0,0-.2,1.15,6.78,6.78,0,0,0,5.41,6.63c0,.11,0,.23,0,.35a3.51,3.51,0,0,1-.29,2l-.14.2h2.58l-.1-.19a2.36,2.36,0,0,1-.29-1.31v-9A2.47,2.47,0,0,1,411.53,277.37Z" transform="translate(-204.68 -225.67)"/>
      <path d="M420.4,277.37l.12-.19h-2.61l.13.2a2,2,0,0,1,.3,1.3v.88a1.68,1.68,0,0,0-.74-.15,2.41,2.41,0,0,0-.73.18,3.82,3.82,0,0,1-1.16.25,1.06,1.06,0,0,1-.62-.17c0-.1,0-.21,0-.32a3.6,3.6,0,0,1,.31-2l.12-.19H412.9l.13.2a2.09,2.09,0,0,1,.29,1.3v9A2,2,0,0,1,413,289l-.13.2h2.57l-.09-.19a2.38,2.38,0,0,1-.29-1.31v-6.27a2.36,2.36,0,0,0,.8.13,2.75,2.75,0,0,0,1-.23,2.58,2.58,0,0,1,.73-.18,1,1,0,0,1,.74.37v6.18a2,2,0,0,1-.3,1.3l-.13.2h2.57l-.09-.19a2.38,2.38,0,0,1-.29-1.31v-9A2.4,2.4,0,0,1,420.4,277.37Z" transform="translate(-204.68 -225.67)"/>
      <path d="M425.51,276.94c-2.45,0-3.91,1.91-3.91,5.1a12.07,12.07,0,0,0,.28,2.51c.35,1.66,1.58,4.81,3.64,4.81,1.83,0,3.06-2.36,3.56-4.37a12,12,0,0,0,.36-2.95C429.44,278.85,428,276.94,425.51,276.94Zm2.13,5a10.67,10.67,0,0,1-.21,2.15h0c-.18,1.14-.9,3.49-1.91,3.49s-1.71-2.29-1.92-3.5a11.94,11.94,0,0,1-.19-2.15c0-1.13.44-3.25,2.11-3.25S427.64,280.82,427.64,282Z" transform="translate(-204.68 -225.67)"/>
      <path d="M436.19,287.38H432.7v-5.87h3.59v-1.77H432.7v-.93h2.85a1.82,1.82,0,0,1,1.29.41l.2.13v-2.17h-6.52l.13.2a2.16,2.16,0,0,1,.28,1.3v9a2.05,2.05,0,0,1-.28,1.3l-.13.2h7.18v-2.27l-.19.1A2.82,2.82,0,0,1,436.19,287.38Z" transform="translate(-204.68 -225.67)"/>
      <path d="M448.91,287.2c0-3.26-.8-5.6-2.45-7.17l.41-.41a11.68,11.68,0,0,1,2.78-2.2l-.06-.24h-3.22v.13a1.91,1.91,0,0,1-.5,1.22l-1.5,1.36v-1.21a2.94,2.94,0,0,1,.26-1.32l.08-.18h-2.46l.08.18a2.55,2.55,0,0,1,.27,1.32v9a3.11,3.11,0,0,1-.27,1.32l-.07.18h2.46l-.1-.19a2.27,2.27,0,0,1-.25-1.18V282l.82-.74c1.35,1.12,1.95,3.59,1.95,5.58,0,.11,0,.22,0,.34a3.5,3.5,0,0,1-.26,1.8l-.13.2h3l-.22-.22A3,3,0,0,1,448.91,287.2Z" transform="translate(-204.68 -225.67)"/>
      <path d="M454.07,276.94c-2.45,0-3.91,1.91-3.91,5.1a12.14,12.14,0,0,0,.28,2.51c.35,1.66,1.57,4.81,3.64,4.81,1.83,0,3.06-2.36,3.56-4.37A12,12,0,0,0,458,282C458,278.85,456.53,276.94,454.07,276.94Zm2.13,5a10.74,10.74,0,0,1-.21,2.15h0c-.19,1.14-.9,3.49-1.91,3.49s-1.71-2.29-1.92-3.5A11.94,11.94,0,0,1,452,282c0-1.13.44-3.25,2.11-3.25S456.2,280.82,456.2,282Z" transform="translate(-204.68 -225.67)"/>
      <path d="M466.57,277.37l.12-.19h-7.61l.13.2a2.27,2.27,0,0,1,.28,1.3v9a2.05,2.05,0,0,1-.28,1.3l-.13.2h2.57l-.1-.19a2.38,2.38,0,0,1-.29-1.31v-8.84h3.26v8.84a2,2,0,0,1-.3,1.3l-.13.2h2.57l-.1-.19a2.38,2.38,0,0,1-.29-1.31v-9A2.49,2.49,0,0,1,466.57,277.37Z" transform="translate(-204.68 -225.67)"/>
      <path d="M475.39,277.37l.12-.19H473l.09.18a2.25,2.25,0,0,1,.31.9,7.25,7.25,0,0,0-3.24,2.79v-2.37a2.44,2.44,0,0,1,.3-1.31l.12-.19H468l.1.19a2.77,2.77,0,0,1,.27,1.31v9a2.77,2.77,0,0,1-.27,1.31l-.1.19h2.56l-.12-.19a2.44,2.44,0,0,1-.3-1.31v-2.19a7.19,7.19,0,0,1,2.47-4.67,3.23,3.23,0,0,1,.74-.51v7.37A2.73,2.73,0,0,1,473,289l-.1.19h2.57l-.13-.19a2.49,2.49,0,0,1-.28-1.31v-9A2.44,2.44,0,0,1,475.39,277.37Z" transform="translate(-204.68 -225.67)"/>
      <path d="M482.31,277.18h-5.57l.13.2a2.16,2.16,0,0,1,.28,1.3v9a2.05,2.05,0,0,1-.28,1.3l-.13.2h2.57l-.1-.19a2.47,2.47,0,0,1-.29-1.31v-8.84h2.43a.5.5,0,0,1,.34.05.16.16,0,0,1,0,.13,1.42,1.42,0,0,1-.33.69l-2.29,3.5v3l4.16-6.23a2.8,2.8,0,0,0,.55-1.57C483.82,277.62,483.27,277.18,482.31,277.18Z" transform="translate(-204.68 -225.67)"/>
      <path d="M488.29,276.94c-2.45,0-3.9,1.91-3.9,5.1a12.12,12.12,0,0,0,.27,2.51c.36,1.66,1.58,4.81,3.64,4.81,1.83,0,3.06-2.36,3.57-4.37a12.54,12.54,0,0,0,.35-2.95C492.22,278.85,490.75,276.94,488.29,276.94Zm2.13,5a10.74,10.74,0,0,1-.21,2.15h0c-.18,1.14-.9,3.49-1.91,3.49s-1.71-2.29-1.92-3.5a11.94,11.94,0,0,1-.19-2.15c0-1.13.44-3.25,2.11-3.25S490.42,280.82,490.42,282Z" transform="translate(-204.68 -225.67)"/>
      <path d="M499.32,280.56a1.82,1.82,0,0,0,.87-1.62,1.87,1.87,0,0,0-2.09-1.76h-4.8l.13.2a2.18,2.18,0,0,1,.28,1.3v9a2.05,2.05,0,0,1-.28,1.3l-.14.2h.25c2.77,0,7.35-2.89,7.35-6.18A2.6,2.6,0,0,0,499.32,280.56Zm-1.53-.82h-2.31v-.95h2.38c.21,0,.38.26.38.47A.52.52,0,0,1,497.79,279.74Zm-2.31,7v-5.29h1.67a1.69,1.69,0,0,1,1.8,1.7C499,284.66,496.88,286.36,495.48,286.74Z" transform="translate(-204.68 -225.67)"/>
      <path d="M508.3,287.65v-9a2.37,2.37,0,0,1,.29-1.27l.09-.16-.18,0h-.08a1.08,1.08,0,0,0-.35,0H508c-2.81,0-5,3.11-5.72,5.21a10.73,10.73,0,0,0-.6,3.53c0,.16,0,.34,0,.53a4,4,0,0,1-.42,2.52l-.18.21h2.65l-.09-.18a4,4,0,0,1-.29-1.32v-2.07h3.18v2.07a2.44,2.44,0,0,1-.3,1.31l-.13.19h2.57l-.1-.19A2.45,2.45,0,0,1,508.3,287.65Zm-1.75-8.43v4.67h-2.91A8.24,8.24,0,0,1,506.55,279.22Z" transform="translate(-204.68 -225.67)"/>
      <path d="M517.45,277.37l.12-.19H515l.13.2a2,2,0,0,1,.3,1.3v.88a1.68,1.68,0,0,0-.74-.15,2.53,2.53,0,0,0-.74.18,3.76,3.76,0,0,1-1.15.25,1.09,1.09,0,0,1-.63-.17c0-.1,0-.21,0-.32a3.69,3.69,0,0,1,.31-2l.12-.19H510l.13.2a2.16,2.16,0,0,1,.28,1.3v9a2.05,2.05,0,0,1-.28,1.3l-.13.2h2.57l-.1-.19a2.38,2.38,0,0,1-.29-1.31v-6.27a2.4,2.4,0,0,0,.8.13,2.81,2.81,0,0,0,1-.23,2.43,2.43,0,0,1,.73-.18,1,1,0,0,1,.74.37v6.18a2,2,0,0,1-.3,1.3l-.14.2h2.58l-.1-.19a2.38,2.38,0,0,1-.29-1.31v-9A2.49,2.49,0,0,1,517.45,277.37Z" transform="translate(-204.68 -225.67)"/>
      <path d="M526.27,277.37l.12-.19h-2.56l.09.18a2.09,2.09,0,0,1,.3.9,7.22,7.22,0,0,0-3.23,2.79v-2.37a2.44,2.44,0,0,1,.3-1.31l.12-.19h-2.57l.1.19a2.65,2.65,0,0,1,.28,1.31v9a2.65,2.65,0,0,1-.28,1.31l-.1.19h2.57l-.12-.19a2.44,2.44,0,0,1-.3-1.31v-2.19a7.19,7.19,0,0,1,2.47-4.67,3.23,3.23,0,0,1,.74-.51v7.37a2.73,2.73,0,0,1-.29,1.31l-.1.19h2.56l-.12-.19a2.49,2.49,0,0,1-.28-1.31v-9A2.44,2.44,0,0,1,526.27,277.37Z" transform="translate(-204.68 -225.67)"/>
      <path d="M533.3,287.38h-3.5v-5.87h3.59v-1.77H529.8v-.93h2.86a1.85,1.85,0,0,1,1.29.41l.19.13v-2.17h-6.52l.13.2a2.16,2.16,0,0,1,.28,1.3v9a2.05,2.05,0,0,1-.28,1.3l-.13.2h7.18v-2.27l-.19.1A2.81,2.81,0,0,1,533.3,287.38Z" transform="translate(-204.68 -225.67)"/>
      <path d="M544.31,281.78a2.52,2.52,0,0,0,1-2.06c0-1.63-1.18-2.6-3.15-2.6a5.86,5.86,0,0,0-2.47.7l-.1.05.59,1.93.15-.15a3.62,3.62,0,0,1,2-.94,1.14,1.14,0,0,1,1.22,1,1.43,1.43,0,0,1-1.22,1.5,1.67,1.67,0,0,1-.39,0l-.15,0v1.61l.15,0a1.93,1.93,0,0,1,.42-.05c1.16,0,1.93,1.45,1.93,2.41a2.59,2.59,0,0,1-2.47,2.51,2.38,2.38,0,0,1-2-.71l-.11-.12-1.13,1.74.11.06a5.49,5.49,0,0,0,3.09.72,4.26,4.26,0,0,0,4.37-4.12A3.73,3.73,0,0,0,544.31,281.78Z" transform="translate(-204.68 -225.67)"/>
      <path d="M553.49,287.65v-9a2.47,2.47,0,0,1,.28-1.27l.1-.16-.18,0h-.09a1,1,0,0,0-.34,0h-.07c-2.82,0-5,3.11-5.73,5.21a11,11,0,0,0-.59,3.53c0,.16,0,.34,0,.53a3.92,3.92,0,0,1-.42,2.52l-.18.21h2.66l-.09-.18a3.8,3.8,0,0,1-.29-1.32v-2.07h3.17v2.07a2.44,2.44,0,0,1-.3,1.31l-.12.19h2.57l-.11-.19A2.45,2.45,0,0,1,553.49,287.65Zm-1.76-8.43v4.67h-2.9A8.27,8.27,0,0,1,551.73,279.22Z" transform="translate(-204.68 -225.67)"/>
      <path d="M562.64,277.37l.11-.19h-7.61l.13.2a2.27,2.27,0,0,1,.28,1.3v9a2.05,2.05,0,0,1-.28,1.3l-.13.2h2.57l-.1-.19a2.47,2.47,0,0,1-.29-1.31v-8.84h3.26v8.84a2,2,0,0,1-.3,1.3l-.13.2h2.57l-.1-.19a2.47,2.47,0,0,1-.29-1.31v-9A2.4,2.4,0,0,1,562.64,277.37Z" transform="translate(-204.68 -225.67)"/>
      <path d="M569.55,277.18H564l.13.2a2.16,2.16,0,0,1,.28,1.3v9a2.05,2.05,0,0,1-.28,1.3l-.13.2h2.57l-.1-.19a2.38,2.38,0,0,1-.29-1.31v-8.84h2.43a.5.5,0,0,1,.34.05.16.16,0,0,1,0,.13,1.42,1.42,0,0,1-.33.69l-2.3,3.5v3l4.17-6.23a2.8,2.8,0,0,0,.55-1.57C571.07,277.62,570.52,277.18,569.55,277.18Z" transform="translate(-204.68 -225.67)"/>
      <path d="M577.46,287.38H574v-5.87h3.59v-1.77H574v-.93h2.86a1.85,1.85,0,0,1,1.29.41l.19.13v-2.17h-6.52l.13.2a2.16,2.16,0,0,1,.28,1.3v9a2.05,2.05,0,0,1-.28,1.3l-.13.2H579v-2.27l-.19.1A2.81,2.81,0,0,1,577.46,287.38Z" transform="translate(-204.68 -225.67)"/>
      <path d="M589.87,278.68a2.38,2.38,0,0,1,.29-1.31l.1-.19h-2.57l.13.2a2,2,0,0,1,.3,1.3v8.71H586v-8.71a2.38,2.38,0,0,1,.29-1.31l.1-.19h-2.58l.14.2a2.1,2.1,0,0,1,.3,1.3v8.71H582v-8.71a2.38,2.38,0,0,1,.29-1.31l.1-.19h-2.58l.13.2a2,2,0,0,1,.29,1.3v9A2.09,2.09,0,0,1,580,289l-.13.2h9a1.84,1.84,0,0,1,1.63,1.12l.24,0v-2.83h-.88Z" transform="translate(-204.68 -225.67)"/>
      <path d="M597.26,287.38h-3.49v-5.87h3.59v-1.77h-3.59v-.93h2.85a1.82,1.82,0,0,1,1.29.41l.2.13v-2.17h-6.52l.13.2a2.16,2.16,0,0,1,.28,1.3v9a2.05,2.05,0,0,1-.28,1.3l-.13.2h7.18v-2.27l-.19.1A2.82,2.82,0,0,1,597.26,287.38Z" transform="translate(-204.68 -225.67)"/>
      <path d="M607.16,277.37l.12-.19h-2.6l.13.2a2,2,0,0,1,.3,1.3v.88a1.68,1.68,0,0,0-.74-.15,2.53,2.53,0,0,0-.74.18,3.76,3.76,0,0,1-1.15.25,1.09,1.09,0,0,1-.63-.17v-.32a3.6,3.6,0,0,1,.3-2l.13-.19h-2.61l.13.2a2.16,2.16,0,0,1,.28,1.3v9a2.05,2.05,0,0,1-.28,1.3l-.13.2h2.57l-.1-.19a2.38,2.38,0,0,1-.29-1.31v-6.27a2.45,2.45,0,0,0,.81.13,2.81,2.81,0,0,0,1-.23,2.43,2.43,0,0,1,.73-.18,1,1,0,0,1,.74.37v6.18a2,2,0,0,1-.3,1.3l-.13.2h2.57l-.1-.19a2.38,2.38,0,0,1-.29-1.31v-9A2.49,2.49,0,0,1,607.16,277.37Z" transform="translate(-204.68 -225.67)"/>
      <path d="M612.27,276.94c-2.44,0-3.9,1.91-3.9,5.1a12.12,12.12,0,0,0,.27,2.51c.36,1.66,1.58,4.81,3.65,4.81,1.82,0,3.06-2.36,3.56-4.37a12,12,0,0,0,.36-2.95C616.21,278.85,614.74,276.94,612.27,276.94Zm2.13,5a10.75,10.75,0,0,1-.2,2.15h0c-.19,1.14-.9,3.49-1.91,3.49s-1.71-2.29-1.93-3.5a11.94,11.94,0,0,1-.19-2.15c0-1.13.44-3.25,2.12-3.25S614.4,280.82,614.4,282Z" transform="translate(-204.68 -225.67)"/>
    </g>
  </g>
</svg>
